<?xml version="1.0" encoding="UTF-8"?>
<!DOCTYPE svg PUBLIC "-//W3C//DTD SVG 1.1//EN" "http://www.w3.org/Graphics/SVG/1.1/DTD/svg11.dtd">
<!-- Creator: CorelDRAW 2019 (64-Bit) -->
<svg xmlns="http://www.w3.org/2000/svg" xml:space="preserve" width="1.6932mm" height="1.6932mm" version="1.1" style="shape-rendering:geometricPrecision; text-rendering:geometricPrecision; image-rendering:optimizeQuality; fill-rule:evenodd; clip-rule:evenodd"
viewBox="0 0 169.32 169.32"
 xmlns:xlink="http://www.w3.org/1999/xlink">
 <defs>
  <style type="text/css">
   <![CDATA[
    .fil0 {fill:#FEFEFE}
   ]]>
  </style>
 </defs>
 <g id="Слой_x0020_1">
  <metadata id="CorelCorpID_0Corel-Layer"/>
  <g id="_1540472536928">
   <path class="fil0" d="M-0 16.86l16.86 0 19.07 40.46c0.54,1.07 0.96,1.88 1.44,2.86l6.75 14.42c0.82,2 2.22,4.02 2.83,5.81 0.53,1.52 -0.79,2.86 -2.38,5.51l-9.24 16.22c-2.55,7.11 -2.17,14.01 2.94,19.32 2.59,2.7 6.53,5.5 11.65,5.55 33.59,0.33 68.81,-0.01 102.54,-0.01l0 -16.87 -94.26 0c-3.04,0 -3.7,0.29 -5.62,-1 0,-2.31 1.94,-5.42 3.41,-8.15l4.2 -7.72 59.53 0c4.12,0 5.71,-0.01 8.89,-1.03 5.23,-1.66 7.7,-5.43 10.07,-10.1 1.13,-2.24 2.44,-4.28 3.53,-6.4l21.36 -38.51c1.3,-2.17 2.22,-4.28 3.5,-6.41 1.07,-1.77 1.93,-2.5 2.25,-3.81l0 -3.03c-0.03,-0.23 -0.07,-0.46 -0.11,-0.71 -1.28,-7.17 -8.86,-6.4 -13.44,-6.4l-120.06 0 -7.6 -16.86 -28.11 0 0 16.86z"/>
   <path class="fil0" d="M118.4 152.46c0,8.74 7.62,16.66 15.87,16.86l1.25 0c2.71,-0.03 4.57,-0.26 7.14,-1.52l4.65 -3.3c5.89,-5.92 6.99,-15.31 2.04,-21.83 -0.39,-0.52 -0.53,-0.62 -0.9,-1.08 -5.53,-7 -16.78,-8.5 -23.53,-2.45 -1.49,1.34 -1.54,1.04 -3.27,3.34 -1.88,2.5 -3.25,6.47 -3.25,9.98z"/>
   <path class="fil0" d="M33.73 152.46c0,4.91 2.34,9.13 4.87,11.67 3.11,3.13 6.99,4.87 10.94,5.19l2.69 0c3.53,-0.29 7,-1.72 9.89,-4.33 7.26,-6.54 7.52,-17.81 0.64,-24.69 -0.53,-0.53 -0.54,-0.44 -1.11,-0.88 -4.9,-3.81 -11.6,-5.56 -17.51,-2.67 -1.9,0.93 -2.55,1.19 -3.89,2.39 -0.55,0.5 -0.86,0.65 -1.28,1.04 -3.09,2.81 -5.24,7.86 -5.24,12.28z"/>
  </g>
 </g>
</svg>
