<?xml version="1.0" encoding="UTF-8"?>
<!DOCTYPE svg PUBLIC "-//W3C//DTD SVG 1.1//EN" "http://www.w3.org/Graphics/SVG/1.1/DTD/svg11.dtd">
<!-- Creator: CorelDRAW 2019 (64-Bit) -->
<svg xmlns="http://www.w3.org/2000/svg" xml:space="preserve" width="3.3866mm" height="3.3866mm" version="1.1" style="shape-rendering:geometricPrecision; text-rendering:geometricPrecision; image-rendering:optimizeQuality; fill-rule:evenodd; clip-rule:evenodd"
viewBox="0 0 338.66 338.66"
 xmlns:xlink="http://www.w3.org/1999/xlink">
 <defs>
  <style type="text/css">
   <![CDATA[
    .fil0 {fill:#2075A1}
   ]]>
  </style>
 </defs>
 <g id="Слой_x0020_1">
  <metadata id="CorelCorpID_0Corel-Layer"/>
  <g id="_1540715279600">
   <g>
    <path class="fil0" d="M311.49 222.29c-20.74,0 -41.09,-3.24 -60.39,-9.62 -9.45,-3.22 -21.07,-0.26 -26.84,5.66l-38.08 28.75c-44.16,-23.57 -71.37,-50.77 -94.62,-94.6l27.9 -37.09c7.25,-7.24 9.85,-17.81 6.74,-27.73 -6.41,-19.4 -9.66,-39.74 -9.66,-60.49 0,-14.98 -12.19,-27.18 -27.17,-27.18l-62.2 0c-14.98,0 -27.17,12.2 -27.17,27.18 0,171.76 139.73,311.5 311.49,311.5 14.98,0 27.17,-12.2 27.17,-27.18l0 -62.02c0,-14.99 -12.19,-27.18 -27.17,-27.18z"/>
   </g>
  </g>
  <g id="_1540715276656">
  </g>
  <g id="_1540715277968">
  </g>
  <g id="_1540715274832">
  </g>
  <g id="_1540715274704">
  </g>
  <g id="_1540715273392">
  </g>
  <g id="_1540715272560">
  </g>
  <g id="_1540715271184">
  </g>
  <g id="_1540715269872">
  </g>
  <g id="_1540715265456">
  </g>
  <g id="_1540715260400">
  </g>
  <g id="_1540715258160">
  </g>
  <g id="_1540715257296">
  </g>
  <g id="_1540715253456">
  </g>
  <g id="_1540715251504">
  </g>
  <g id="_1540715312944">
  </g>
 </g>
</svg>
