<?xml version="1.0" encoding="UTF-8"?>
<!DOCTYPE svg PUBLIC "-//W3C//DTD SVG 1.1//EN" "http://www.w3.org/Graphics/SVG/1.1/DTD/svg11.dtd">
<!-- Creator: CorelDRAW 2019 (64-Bit) -->
<svg xmlns="http://www.w3.org/2000/svg" xml:space="preserve" width="1.5238mm" height="1.4562mm" version="1.1" style="shape-rendering:geometricPrecision; text-rendering:geometricPrecision; image-rendering:optimizeQuality; fill-rule:evenodd; clip-rule:evenodd"
viewBox="0 0 152.38 145.62"
 xmlns:xlink="http://www.w3.org/1999/xlink">
 <defs>
  <style type="text/css">
   <![CDATA[
    .fil0 {fill:#BB0729}
   ]]>
  </style>
 </defs>
 <g id="Слой_x0020_1">
  <metadata id="CorelCorpID_0Corel-Layer"/>
  <g id="_1540661886704">
  </g>
  <g id="_1540661884592">
  </g>
  <g id="_1540661885840">
  </g>
  <g id="_1540661880368">
  </g>
  <g id="_1540661881808">
  </g>
  <g id="_1540661880784">
  </g>
  <g id="_1540661878064">
  </g>
  <g id="_1540661879568">
  </g>
  <g id="_1540661879472">
  </g>
  <g id="_1540661879824">
  </g>
  <g id="_1540661877520">
  </g>
  <g id="_1540661875920">
  </g>
  <g id="_1540661876176">
  </g>
  <g id="_1540661877616">
  </g>
  <g id="_1540661875248">
  </g>
  <path class="fil0" d="M55.53 54.8c-11.63,0 -24.45,0.75 -36.78,0.75 -2.87,-0.01 -4.81,0.31 -7.12,0.38 -5.56,0.17 -11.64,-1.54 -11.64,4.49 0,1.47 0.72,2.18 1.6,2.91 6.74,5.58 21.86,16.58 29.92,22.61l10.88 8.26c-0.14,1.75 -6.9,23.55 -7.45,25.19 -1.43,4.2 -2.43,8.46 -3.85,12.66l-3.71 12.81c0,1.93 2.96,5.89 7.62,2.36l10.84 -7.55c1.01,-0.68 1.67,-1.1 2.66,-1.84 1.83,-1.37 3.72,-2.57 5.53,-3.85l16.44 -11.33c7.11,-4.83 3.74,-5.25 13.88,1.64l27.24 18.91c3.94,2.73 8.87,7.57 11.97,4.4 2.65,-2.71 0.78,-5 -0.33,-8.91 -1.61,-5.67 -13.1,-42.19 -13.29,-44.49l40.59 -30.71c3.3,-2.59 1.94,-7.1 -1.97,-7.54 -2.29,-0.26 -5.09,0.18 -7.42,-0.08l-44.34 -1.07 -9.14 -26.51c-0.79,-2.37 -1.47,-4.1 -2.26,-6.37 -0.84,-2.4 -1.36,-4.41 -2.26,-6.74 -2.68,-6.91 -2.47,-11.42 -7.35,-11.42 -3.88,0 -4.53,6.21 -6.49,11.15 -0.92,2.32 -1.46,4.32 -2.28,6.73l-6.95 19.69c-0.76,2.3 -1.43,4.56 -2.29,6.71 -0.74,1.86 -1.78,4.74 -2.25,6.76z"/>
 </g>
</svg>
