<?xml version="1.0" encoding="UTF-8"?>
<!DOCTYPE svg PUBLIC "-//W3C//DTD SVG 1.1//EN" "http://www.w3.org/Graphics/SVG/1.1/DTD/svg11.dtd">
<!-- Creator: CorelDRAW 2019 (64-Bit) -->
<svg xmlns="http://www.w3.org/2000/svg" xml:space="preserve" width="3.9792mm" height="4.2332mm" version="1.1" viewBox="0 0 397.92 423.32" xmlns:xlink="http://www.w3.org/1999/xlink">
 <defs>
  <style type="text/css">
   <![CDATA[
    .fil0 {fill:#ff0000}
   ]]>
  </style>
 </defs>
  <g>
   <path class="fil0" d="M235.95 256.37l0.83 33.94c4.1,-0.34 8.74,-1.77 13.04,-2.69 12.52,-2.67 19.47,-2.64 24.11,-9.01 2.47,-3.39 4.56,-5.96 7.21,-9.35l28.75 -37.47c2.7,-3.3 4.74,-6.18 7.19,-9.38l50.51 -65.39c-2.16,-3.23 -29.44,-23.75 -34.77,-27.32 -7.49,11.17 -37.82,48.69 -48.62,63.15l-42.44 55.25c-1.15,1.49 -5.81,6.52 -5.81,8.27z"/>
   <path class="fil0" d="M130.81 16.27c0,15.93 -21.06,12.42 -35.6,12.42l0 28.15 106.8 0 0 -28.15c-36.27,0 -36.43,2.6 -36.43,-28.98l-34.77 0 0 16.56z"/>
   <path class="fil0" d="M349.37 108.17c2.14,3.19 31.71,25.27 34.78,27.32 5.11,-7.64 12.09,-12.86 8.61,-25.99 -3.85,-14.55 -22.08,-21.37 -34.42,-11.41l-8.97 10.08z"/>
   <path class="fil0" d="M32.72 29.53l35.37 0 0 40.83c0,7.69 6.28,13.97 13.97,13.97l132.32 0c7.69,0 13.97,-6.28 13.97,-13.97l0 -40.83 35.37 0c20.32,0 36.96,16.63 36.96,36.95l0 61.09c-15.17,20.38 -49.28,65.67 -71.23,94.77 -1.46,-0.54 -3.04,-0.83 -4.69,-0.83l-153.08 0c-7.53,0 -13.68,6.16 -13.68,13.68l0 0c0,7.52 6.15,13.68 13.68,13.68l137.75 0c-0.55,0.87 -0.74,1.48 -0.67,2.47 0.76,19.52 1.52,39.03 2.28,58.55 0.99,7.41 7.89,10.67 15.42,9.8 17.62,-3.72 35.25,-7.44 52.87,-11.16 4.81,-1.33 6.32,-2.79 9.7,-6.4l11.65 -14.37 0 98.89c0,20.32 -16.64,36.96 -36.96,36.96l-231 0c-20.32,0 -36.96,-16.64 -36.96,-36.96l0 -320.17c0,-20.32 16.64,-36.95 36.96,-36.95zm38.96 120.58l153.08 0c7.53,0 13.68,6.15 13.68,13.68l0 0c0,7.52 -6.15,13.68 -13.68,13.68l-153.08 0c-7.53,0 -13.68,-6.16 -13.68,-13.68l0 0c0,-7.53 6.15,-13.68 13.68,-13.68zm0 142.8l89.15 0c7.52,0 13.68,6.16 13.68,13.68l0 0c0,7.52 -6.16,13.68 -13.68,13.68l-89.15 0c-7.53,0 -13.68,-6.16 -13.68,-13.68l0 0c0,-7.52 6.15,-13.68 13.68,-13.68z"/>
  </g>
</svg>
