<?xml version="1.0" encoding="UTF-8"?>
<!DOCTYPE svg PUBLIC "-//W3C//DTD SVG 1.1//EN" "http://www.w3.org/Graphics/SVG/1.1/DTD/svg11.dtd">
<!-- Creator: CorelDRAW 2019 (64-Bit) -->
<svg xmlns="http://www.w3.org/2000/svg" xml:space="preserve" width="1.866mm" height="1.6932mm" version="1.1" style="shape-rendering:geometricPrecision; text-rendering:geometricPrecision; image-rendering:optimizeQuality; fill-rule:evenodd; clip-rule:evenodd"
viewBox="0 0 186.6 169.32"
 xmlns:xlink="http://www.w3.org/1999/xlink">
 <defs>
  <style type="text/css">
   <![CDATA[
    .fil0 {fill:#2075A1}
   ]]>
  </style>
 </defs>
 <g id="Слой_x0020_1">
  <metadata id="CorelCorpID_0Corel-Layer"/>
  <g id="_1540649304512">
  </g>
  <g id="_1540649303040">
  </g>
  <g id="_1540649297216">
  </g>
  <g id="_1540649298048">
  </g>
  <g id="_1540649297440">
  </g>
  <g id="_1540465529136">
  </g>
  <g id="_1540465513424">
  </g>
  <g id="_1540465514160">
  </g>
  <g id="_1540465514832">
  </g>
  <g id="_1540465512656">
  </g>
  <g id="_1540465510864">
  </g>
  <g id="_1540465506864">
  </g>
  <g id="_1540465508144">
  </g>
  <g id="_1540465507632">
  </g>
  <g id="_1540465505104">
  </g>
  <g id="_1540465500048">
   <path class="fil0" d="M51.18 60.68l19.25 0 0 97.37 -19.25 0 0 -97.37zm-11.11 -2.22l0 101.44c0,4.79 3.93,9.25 8.52,9.25l24.44 0c4.25,0 8.51,-4 8.51,-9.25l0 -101.44c0,-2.5 -1.64,-5.34 -3.1,-6.53 -1.92,-1.55 -3.96,-2.36 -7.26,-2.36l-20.74 0c-5.96,0 -10.37,3.88 -10.37,8.89z"/>
   <path class="fil0" d="M99.55 90.3l19.25 0 0 67.75 -19.25 0 0 -67.75zm-11.11 -2.23l0 71.83c0,5.25 4.26,9.25 8.51,9.25l24.44 0c4.59,0 8.52,-4.46 8.52,-9.25l0 -71.83c0,-2.31 -1.46,-4.99 -2.68,-6.21 -1.21,-1.22 -3.9,-2.67 -6.21,-2.67l-23.7 0c-2.31,0 -4.99,1.45 -6.21,2.67 -1.22,1.22 -2.67,3.9 -2.67,6.21z"/>
   <path class="fil0" d="M2.81 115.1l19.25 0 0 42.95 -19.25 0 0 -42.95zm-11.11 -2.22l0 47.39c0,5.14 4.58,8.88 8.52,8.88 5.35,0 24.49,0.74 27.66,-0.84 0.66,-0.33 2.32,-1.57 2.76,-2.06 1.62,-1.81 2.53,-4.12 2.53,-7.46l0 -44.43c0,-5.82 -3.63,-10.37 -8.52,-10.37l-24.06 0c-4.91,0 -8.89,3.96 -8.89,8.89z"/>
   <path class="fil0" d="M147.93 11.1l19.25 0 0 146.95 -19.25 0 0 -146.95zm-11.11 -2.22l0 151.02c0,5.25 4.26,9.25 8.52,9.25l24.43 0c4.59,0 8.52,-4.46 8.52,-9.25l0 -151.02c0,-2.31 -1.45,-4.99 -2.67,-6.21 -1.22,-1.22 -3.9,-2.67 -6.22,-2.67l-23.69 0c-2.31,0 -5,1.45 -6.22,2.67 -1.22,1.22 -2.67,3.9 -2.67,6.21z"/>
  </g>
 </g>
</svg>
