<?xml version="1.0" encoding="UTF-8"?>
<!DOCTYPE svg PUBLIC "-//W3C//DTD SVG 1.1//EN" "http://www.w3.org/Graphics/SVG/1.1/DTD/svg11.dtd">
<!-- Creator: CorelDRAW 2019 (64-Bit) -->
<svg xmlns="http://www.w3.org/2000/svg" xml:space="preserve" width="1.6086mm" height="1.4816mm" version="1.1" style="shape-rendering:geometricPrecision; text-rendering:geometricPrecision; image-rendering:optimizeQuality; fill-rule:evenodd; clip-rule:evenodd"
viewBox="0 0 160.86 148.16"
 xmlns:xlink="http://www.w3.org/1999/xlink">
 <defs>
  <style type="text/css">
   <![CDATA[
    .fil0 {fill:#2075A1}
   ]]>
  </style>
 </defs>
 <g id="Слой_x0020_1">
  <metadata id="CorelCorpID_0Corel-Layer"/>
  <g id="_1540467002192">
  </g>
  <g id="_1540466996656">
  </g>
  <g id="_1540466950896">
  </g>
  <g id="_1540466946960">
  </g>
  <g id="_1540466945776">
  </g>
  <g id="_1540466944432">
  </g>
  <g id="_1540466942832">
  </g>
  <g id="_1540466943600">
  </g>
  <g id="_1540466943760">
  </g>
  <g id="_1540652716896">
  </g>
  <g id="_1540652714944">
  </g>
  <g id="_1540652772288">
  </g>
  <g id="_1540652769824">
  </g>
  <g id="_1540652767776">
  </g>
  <g id="_1540652762496">
  </g>
  <path class="fil0" d="M9.34 54.37c0.37,-11.65 4.25,-19.75 10.1,-26.52 4.39,-5.09 14.63,-10.91 24,-10.61 9.5,0.31 14.1,2.21 20.55,7.76 6.89,5.91 6.01,12.75 13.12,12.98 5.69,0.18 6.52,-6.88 13.01,-11.98 6.54,-5.14 11.93,-6.87 21.21,-6.57 9.37,0.31 19.22,6.77 23.27,12.13 10.76,14.23 11.09,32.54 1.87,47.88l-3.75 5.25c-5.07,5.61 -6.47,5.95 -11.75,10.36 -0.48,0.4 -0.63,0.61 -1.13,1.01l-40.91 32.84c-0.96,0.75 -1.36,1.15 -2.37,1.9 -1,0.75 -1.46,1.46 -2.52,2.12 -1.66,-0.44 -1.48,-0.71 -2.53,-1.78l-42.21 -38.7c-0.97,-1.02 -1.49,-1.29 -2.43,-2.22 -0.89,-0.89 -1.4,-1.23 -2.25,-2.04 -2.85,-2.71 -3.84,-3.46 -6.57,-7.01 -4.69,-6.09 -9.06,-16.1 -8.71,-26.8zm-13.56 -1.15c-0.51,15.99 5.98,30.68 16.62,41.9l19.81 18.13c1.83,1.9 3.67,3.33 5.55,5.19l12.68 11.66c0.7,0.65 0.87,0.65 1.56,1.31 0.53,0.5 0.7,0.77 1.25,1.25l7.09 6.51c0.66,0.66 0.74,0.63 1.36,1.16l2.81 2.56c6.63,6.3 8.76,8.56 16.95,1.25 5.88,-5.23 17.35,-13.53 23.5,-18.89 0.95,-0.82 1.48,-1.14 2.38,-1.89l13.97 -11.33c8.92,-7.77 19.7,-13.97 26.22,-24.86 3.77,-6.32 5.82,-10.92 7.54,-18.18 0.95,-4.02 0.67,-4.74 1.15,-7.64 1.59,-9.59 -1.68,-21.54 -6.15,-30.43 -1.84,-3.66 -2.91,-4.72 -5.09,-7.69 -7.38,-10.09 -21.7,-16.99 -34.64,-17.4 -7.75,-0.25 -14.17,2.18 -19.23,4.98 -1.37,0.75 -2.45,1.41 -3.75,2.28l-6.85 5.62c-0.82,0.76 -2.66,2.8 -3.24,3.2 -1.6,-1.26 -4.59,-6.49 -12.87,-11.83 -20.38,-13.17 -45.75,-4.75 -59.25,14.35 -5.5,7.78 -9.06,19.38 -9.37,28.79z"/>
 </g>
</svg>
