<?xml version="1.0" encoding="UTF-8"?>
<!DOCTYPE svg PUBLIC "-//W3C//DTD SVG 1.1//EN" "http://www.w3.org/Graphics/SVG/1.1/DTD/svg11.dtd">
<!-- Creator: CorelDRAW 2019 (64-Bit) -->
<svg xmlns="http://www.w3.org/2000/svg" xml:space="preserve" width="1.3546mm" height="1.0158mm" version="1.1" style="shape-rendering:geometricPrecision; text-rendering:geometricPrecision; image-rendering:optimizeQuality; fill-rule:evenodd; clip-rule:evenodd"
viewBox="0 0 135.46 101.58"
 xmlns:xlink="http://www.w3.org/1999/xlink">
 <defs>
  <style type="text/css">
   <![CDATA[
    .fil0 {fill:#FEFEFE}
   ]]>
  </style>
 </defs>
 <g id="Слой_x0020_1">
  <metadata id="CorelCorpID_0Corel-Layer"/>
  <g id="_1540649298560">
   <path class="fil0" d="M129.82 56.44l-124.18 0c-3.12,0 -5.65,-2.53 -5.65,-5.65 0,-3.12 2.53,-5.64 5.65,-5.64l124.18 0c3.12,0 5.65,2.52 5.65,5.64 0,3.12 -2.53,5.65 -5.65,5.65l0 0zm0 0z"/>
   <path class="fil0" d="M129.82 13.16l-124.18 0c-3.12,0 -5.65,-2.53 -5.65,-5.65 0,-3.11 2.53,-5.64 5.65,-5.64l124.18 0c3.12,0 5.65,2.53 5.65,5.64 0,3.12 -2.53,5.65 -5.65,5.65l0 0zm0 0z"/>
   <path class="fil0" d="M129.82 99.71l-124.18 0c-3.12,0 -5.65,-2.53 -5.65,-5.64 0,-3.12 2.53,-5.65 5.65,-5.65l124.18 0c3.12,0 5.65,2.53 5.65,5.65 0,3.11 -2.53,5.64 -5.65,5.64l0 0zm0 0z"/>
  </g>
 </g>
</svg>
