<?xml version="1.0" encoding="utf-8"?><svg xmlns="http://www.w3.org/2000/svg" xmlns:xlink="http://www.w3.org/1999/xlink"><symbol viewBox="0 0 169.32 169.32" id="cart" xmlns="http://www.w3.org/2000/svg"><defs><style>.afil0{fill:#fefefe}</style></defs><g id="aСлой_x0020_1"><path class="afil0" d="M0 16.86h16.86l19.07 40.46c.54 1.07.96 1.88 1.44 2.86l6.75 14.42c.82 2 2.22 4.02 2.83 5.81.53 1.52-.79 2.86-2.38 5.51l-9.24 16.22c-2.55 7.11-2.17 14.01 2.94 19.32 2.59 2.7 6.53 5.5 11.65 5.55 33.59.33 68.81-.01 102.54-.01v-16.87H58.2c-3.04 0-3.7.29-5.62-1 0-2.31 1.94-5.42 3.41-8.15l4.2-7.72h59.53c4.12 0 5.71-.01 8.89-1.03 5.23-1.66 7.7-5.43 10.07-10.1 1.13-2.24 2.44-4.28 3.53-6.4l21.36-38.51c1.3-2.17 2.22-4.28 3.5-6.41 1.07-1.77 1.93-2.5 2.25-3.81v-3.03c-.03-.23-.07-.46-.11-.71-1.28-7.17-8.86-6.4-13.44-6.4H35.71L28.11 0H0v16.86zm118.4 135.6c0 8.74 7.62 16.66 15.87 16.86h1.25c2.71-.03 4.57-.26 7.14-1.52l4.65-3.3c5.89-5.92 6.99-15.31 2.04-21.83-.39-.52-.53-.62-.9-1.08-5.53-7-16.78-8.5-23.53-2.45-1.49 1.34-1.54 1.04-3.27 3.34-1.88 2.5-3.25 6.47-3.25 9.98zm-84.67 0c0 4.91 2.34 9.13 4.87 11.67 3.11 3.13 6.99 4.87 10.94 5.19h2.69c3.53-.29 7-1.72 9.89-4.33 7.26-6.54 7.52-17.81.64-24.69-.53-.53-.54-.44-1.11-.88-4.9-3.81-11.6-5.56-17.51-2.67-1.9.93-2.55 1.19-3.89 2.39-.55.5-.86.65-1.28 1.04-3.09 2.81-5.24 7.86-5.24 12.28z" id="a_1540472536928"/></g></symbol><symbol viewBox="0 0 16 16" id="check" xmlns="http://www.w3.org/2000/svg"><path d="M13.795 1L5.79 12.527 2.036 8.503 1 9.773 5.917 15 15 2.112 13.795 1z"/></symbol><symbol viewBox="0 0 97.16 97.16" id="clock" xmlns="http://www.w3.org/2000/svg"><path d="M48.58 0C21.793 0 0 21.793 0 48.58s21.793 48.58 48.58 48.58 48.58-21.793 48.58-48.58S75.367 0 48.58 0zm0 86.823c-21.087 0-38.244-17.155-38.244-38.243S27.493 10.337 48.58 10.337 86.824 27.492 86.824 48.58 69.667 86.823 48.58 86.823z"/><path d="M73.898 47.08H52.066V20.83a4 4 0 00-8 0v30.25a4 4 0 004 4h25.832a4 4 0 000-8z"/></symbol><symbol viewBox="0 0 186.6 169.32" id="compare" xmlns="http://www.w3.org/2000/svg"><defs><style>.dfil0{fill:#2075a1}</style></defs><g id="dСлой_x0020_1"><path class="dfil0" d="M51.18 60.68h19.25v97.37H51.18V60.68zm-11.11-2.22V159.9c0 4.79 3.93 9.25 8.52 9.25h24.44c4.25 0 8.51-4 8.51-9.25V58.46c0-2.5-1.64-5.34-3.1-6.53-1.92-1.55-3.96-2.36-7.26-2.36H50.44c-5.96 0-10.37 3.88-10.37 8.89zM99.55 90.3h19.25v67.75H99.55V90.3zm-11.11-2.23v71.83c0 5.25 4.26 9.25 8.51 9.25h24.44c4.59 0 8.52-4.46 8.52-9.25V88.07c0-2.31-1.46-4.99-2.68-6.21-1.21-1.22-3.9-2.67-6.21-2.67h-23.7c-2.31 0-4.99 1.45-6.21 2.67-1.22 1.22-2.67 3.9-2.67 6.21zM2.81 115.1h19.25v42.95H2.81V115.1zm-11.11-2.22v47.39c0 5.14 4.58 8.88 8.52 8.88 5.35 0 24.49.74 27.66-.84.66-.33 2.32-1.57 2.76-2.06 1.62-1.81 2.53-4.12 2.53-7.46v-44.43c0-5.82-3.63-10.37-8.52-10.37H.59c-4.91 0-8.89 3.96-8.89 8.89zM147.93 11.1h19.25v146.95h-19.25V11.1zm-11.11-2.22V159.9c0 5.25 4.26 9.25 8.52 9.25h24.43c4.59 0 8.52-4.46 8.52-9.25V8.88c0-2.31-1.45-4.99-2.67-6.21C174.4 1.45 171.72 0 169.4 0h-23.69c-2.31 0-5 1.45-6.22 2.67-1.22 1.22-2.67 3.9-2.67 6.21z" id="d_1540465500048"/></g></symbol><symbol viewBox="0 0 7 10" id="dev-hleb-kroshki" xmlns="http://www.w3.org/2000/svg"><path d="M1.268 3.258l1.375 1.937-1.375 1.75m2.92-3.687l1.313 1.844-1.313 1.843"/></symbol><symbol viewBox="0 0 460.298 460.297" class="fhovered-paths" id="home" xmlns="http://www.w3.org/2000/svg"><path d="M230.149 120.939L65.986 256.274c0 .191-.048.472-.144.855-.094.38-.144.656-.144.852v137.041c0 4.948 1.809 9.236 5.426 12.847 3.616 3.613 7.898 5.431 12.847 5.431h109.63V303.664h73.097v109.64h109.629c4.948 0 9.236-1.814 12.847-5.435 3.617-3.607 5.432-7.898 5.432-12.847V257.981c0-.76-.104-1.334-.288-1.707L230.149 120.939z" data-original="#000000" class="fhovered-path factive-path" data-old_color="#000000"/><path d="M457.122 225.438L394.6 173.476V56.989c0-2.663-.856-4.853-2.574-6.567-1.704-1.712-3.894-2.568-6.563-2.568h-54.816c-2.666 0-4.855.856-6.57 2.568-1.711 1.714-2.566 3.905-2.566 6.567v55.673l-69.662-58.245c-6.084-4.949-13.318-7.423-21.694-7.423-8.375 0-15.608 2.474-21.698 7.423L3.172 225.438c-1.903 1.52-2.946 3.566-3.14 6.136-.193 2.568.472 4.811 1.997 6.713l17.701 21.128c1.525 1.712 3.521 2.759 5.996 3.142 2.285.192 4.57-.476 6.855-1.998L230.149 95.817l197.57 164.741c1.526 1.328 3.521 1.991 5.996 1.991h.858c2.471-.376 4.463-1.43 5.996-3.138l17.703-21.125c1.522-1.906 2.189-4.145 1.991-6.716-.195-2.563-1.242-4.609-3.141-6.132z" data-original="#000000" class="fhovered-path factive-path" data-old_color="#000000"/></symbol><symbol viewBox="0 0 160.86 148.16" id="like" xmlns="http://www.w3.org/2000/svg"><path d="M9.34 54.37c.37-11.65 4.25-19.75 10.1-26.52 4.39-5.09 14.63-10.91 24-10.61 9.5.31 14.1 2.21 20.55 7.76 6.89 5.91 6.01 12.75 13.12 12.98 5.69.18 6.52-6.88 13.01-11.98 6.54-5.14 11.93-6.87 21.21-6.57 9.37.31 19.22 6.77 23.27 12.13 10.76 14.23 11.09 32.54 1.87 47.88l-3.75 5.25c-5.07 5.61-6.47 5.95-11.75 10.36-.48.4-.63.61-1.13 1.01L78.93 128.9c-.96.75-1.36 1.15-2.37 1.9-1 .75-1.46 1.46-2.52 2.12-1.66-.44-1.48-.71-2.53-1.78L29.3 92.44c-.97-1.02-1.49-1.29-2.43-2.22-.89-.89-1.4-1.23-2.25-2.04-2.85-2.71-3.84-3.46-6.57-7.01-4.69-6.09-9.06-16.1-8.71-26.8zm-13.56-1.15c-.51 15.99 5.98 30.68 16.62 41.9l19.81 18.13c1.83 1.9 3.67 3.33 5.55 5.19l12.68 11.66c.7.65.87.65 1.56 1.31.53.5.7.77 1.25 1.25l7.09 6.51c.66.66.74.63 1.36 1.16l2.81 2.56c6.63 6.3 8.76 8.56 16.95 1.25 5.88-5.23 17.35-13.53 23.5-18.89.95-.82 1.48-1.14 2.38-1.89l13.97-11.33c8.92-7.77 19.7-13.97 26.22-24.86 3.77-6.32 5.82-10.92 7.54-18.18.95-4.02.67-4.74 1.15-7.64 1.59-9.59-1.68-21.54-6.15-30.43-1.84-3.66-2.91-4.72-5.09-7.69-7.38-10.09-21.7-16.99-34.64-17.4-7.75-.25-14.17 2.18-19.23 4.98-1.37.75-2.45 1.41-3.75 2.28l-6.85 5.62c-.82.76-2.66 2.8-3.24 3.2-1.6-1.26-4.59-6.49-12.87-11.83C44.02-3.09 18.65 5.33 5.15 24.43c-5.5 7.78-9.06 19.38-9.37 28.79z"/></symbol><symbol viewBox="0 0 160.86 148.16" id="like2" xmlns="http://www.w3.org/2000/svg"><path d="M-4.22 53.22c-.51 15.99 5.98 30.68 16.62 41.9l19.81 18.13c1.83 1.9 3.67 3.33 5.55 5.19l12.68 11.66c.7.65.87.65 1.56 1.31.53.5.7.77 1.25 1.25l7.09 6.51c.66.66.74.63 1.36 1.16l2.81 2.56c6.63 6.3 8.76 8.56 16.95 1.25 5.88-5.23 17.35-13.53 23.5-18.89.95-.82 1.48-1.14 2.38-1.89l13.97-11.33c8.92-7.77 19.7-13.97 26.22-24.86 3.77-6.32 5.82-10.92 7.54-18.18.95-4.02.67-4.74 1.15-7.64 1.59-9.59-1.68-21.54-6.15-30.43-1.84-3.66-2.91-4.72-5.09-7.69-7.38-10.09-21.7-16.99-34.64-17.4-7.75-.25-14.17 2.18-19.23 4.98-1.37.75-2.45 1.41-3.75 2.28l-6.85 5.62c-.82.76-2.66 2.8-3.24 3.2-1.6-1.26-4.59-6.49-12.87-11.83C44.02-3.09 18.65 5.33 5.15 24.43c-5.5 7.78-9.06 19.38-9.37 28.79z"/></symbol><symbol viewBox="0 0 338.66 270.92" id="mail" xmlns="http://www.w3.org/2000/svg"><defs><style>.ifil0{fill:#2075a1}</style></defs><g id="iСлой_x0020_1"><g id="i_1540715258896"><path class="ifil0" d="M308.42 268.51c7.62 0 14.21-2.51 19.82-7.48l-95.95-95.95c-2.3 1.65-4.53 3.25-6.64 4.77-7.18 5.29-13.01 9.42-17.48 12.38-4.48 2.97-10.43 5.99-17.86 9.07-7.44 3.09-14.37 4.63-20.79 4.63h-.38c-6.43 0-13.36-1.54-20.79-4.63-7.44-3.08-13.39-6.1-17.86-9.07-4.47-2.96-10.3-7.08-17.48-12.38-2.01-1.46-4.23-3.07-6.63-4.8l-95.97 95.98c5.61 4.97 12.21 7.48 19.82 7.48h278.19zM19.08 104.66C11.91 99.87 5.54 94.39 0 88.21V234.2l84.57-84.57c-16.92-11.81-38.72-26.79-65.49-44.97zm300.69 0c-25.75 17.42-47.62 32.42-65.64 45l84.53 84.54V88.21c-5.42 6.05-11.71 11.53-18.89 16.45z"/><path class="ifil0" d="M308.42 2.41H30.24c-9.71 0-17.17 3.28-22.4 9.83C2.61 18.79 0 26.98 0 36.8c0 7.94 3.46 16.54 10.39 25.8 6.93 9.26 14.3 16.54 22.11 21.83 4.29 3.03 17.2 12 38.75 26.93 11.63 8.06 21.74 15.09 30.44 21.15 7.41 5.16 13.8 9.63 19.07 13.34.61.43 1.56 1.11 2.82 2.01 1.37.98 3.09 2.22 5.22 3.76 4.09 2.96 7.49 5.35 10.2 7.18 2.71 1.83 5.98 3.87 9.83 6.14 3.84 2.27 7.47 3.97 10.87 5.11 3.4 1.13 6.55 1.7 9.45 1.7h.37c2.9 0 6.05-.57 9.45-1.7 3.4-1.14 7.02-2.84 10.87-5.11 3.84-2.27 7.11-4.31 9.83-6.14 2.71-1.83 6.11-4.22 10.2-7.18 2.13-1.54 3.85-2.78 5.21-3.75 1.27-.91 2.22-1.59 2.83-2.02 4.11-2.86 10.51-7.31 19.12-13.29 15.67-10.88 38.75-26.91 69.33-48.13 9.19-6.42 16.88-14.18 23.05-23.24 6.16-9.07 9.25-18.59 9.25-28.54 0-8.32-2.99-15.43-8.97-21.36-5.99-5.92-13.08-8.88-21.27-8.88z"/></g></g></symbol><symbol viewBox="0 0 338.66 270.92" id="mail-white" xmlns="http://www.w3.org/2000/svg"><defs><style>.jfil0{fill:#fefefe}</style></defs><g id="jСлой_x0020_1"><g id="j_1540745536592"><path class="jfil0" d="M308.42 268.51c7.62 0 14.21-2.51 19.82-7.48l-95.95-95.95c-2.3 1.65-4.53 3.25-6.64 4.77-7.18 5.29-13.01 9.42-17.48 12.38-4.48 2.97-10.43 5.99-17.86 9.07-7.44 3.09-14.37 4.63-20.79 4.63h-.38c-6.43 0-13.36-1.54-20.79-4.63-7.44-3.08-13.39-6.1-17.86-9.07-4.47-2.96-10.3-7.08-17.48-12.38-2.01-1.46-4.23-3.07-6.63-4.8l-95.97 95.98c5.61 4.97 12.21 7.48 19.82 7.48h278.19zM19.08 104.66C11.91 99.87 5.54 94.39 0 88.21V234.2l84.57-84.57c-16.92-11.81-38.72-26.79-65.49-44.97zm300.69 0c-25.75 17.42-47.62 32.42-65.64 45l84.53 84.54V88.21c-5.42 6.05-11.71 11.53-18.89 16.45z"/><path class="jfil0" d="M308.42 2.41H30.24c-9.71 0-17.17 3.28-22.4 9.83C2.61 18.79 0 26.98 0 36.8c0 7.94 3.46 16.54 10.39 25.8 6.93 9.26 14.3 16.54 22.11 21.83 4.29 3.03 17.2 12 38.75 26.93 11.63 8.06 21.74 15.09 30.44 21.15 7.41 5.16 13.8 9.63 19.07 13.34.61.43 1.56 1.11 2.82 2.01 1.37.98 3.09 2.22 5.22 3.76 4.09 2.96 7.49 5.35 10.2 7.18 2.71 1.83 5.98 3.87 9.83 6.14 3.84 2.27 7.47 3.97 10.87 5.11 3.4 1.13 6.55 1.7 9.45 1.7h.37c2.9 0 6.05-.57 9.45-1.7 3.4-1.14 7.02-2.84 10.87-5.11 3.84-2.27 7.11-4.31 9.83-6.14 2.71-1.83 6.11-4.22 10.2-7.18 2.13-1.54 3.85-2.78 5.21-3.75 1.27-.91 2.22-1.59 2.83-2.02 4.11-2.86 10.51-7.31 19.12-13.29 15.67-10.88 38.75-26.91 69.33-48.13 9.19-6.42 16.88-14.18 23.05-23.24 6.16-9.07 9.25-18.59 9.25-28.54 0-8.32-2.99-15.43-8.97-21.36-5.99-5.92-13.08-8.88-21.27-8.88z"/></g></g></symbol><symbol viewBox="0 0 135.46 101.58" id="menu" xmlns="http://www.w3.org/2000/svg"><defs><style>.kfil0{fill:#fefefe}</style></defs><g id="kСлой_x0020_1"><path class="kfil0" d="M129.82 56.44H5.64a5.65 5.65 0 01-5.65-5.65c0-3.12 2.53-5.64 5.65-5.64h124.18c3.12 0 5.65 2.52 5.65 5.64a5.65 5.65 0 01-5.65 5.65zm0 0zm0-43.28H5.64A5.65 5.65 0 01-.01 7.51c0-3.11 2.53-5.64 5.65-5.64h124.18c3.12 0 5.65 2.53 5.65 5.64a5.65 5.65 0 01-5.65 5.65zm0 0zm0 86.55H5.64c-3.12 0-5.65-2.53-5.65-5.64a5.65 5.65 0 015.65-5.65h124.18a5.65 5.65 0 015.65 5.65c0 3.11-2.53 5.64-5.65 5.64zm0 0z" id="k_1540649298560"/></g></symbol><symbol viewBox="0 0 512 512" id="minus" xmlns="http://www.w3.org/2000/svg"><path d="M477.675 127.498c-22.893-39.22-53.945-70.272-93.166-93.164C345.28 11.443 302.458 0 256.008 0c-46.445 0-89.281 11.443-128.502 34.333-39.223 22.889-70.276 53.941-93.169 93.165C11.443 166.723 0 209.559 0 256c0 46.445 11.446 89.273 34.334 128.5 22.892 39.22 53.944 70.272 93.167 93.167C166.727 500.556 209.559 512 256.003 512s89.281-11.444 128.504-34.333c39.222-22.887 70.273-53.947 93.164-93.167 22.887-39.225 34.328-82.059 34.328-128.5.001-46.446-11.442-89.283-34.324-128.502zm-72.333 149.836c0 5.776-2.114 10.783-6.337 14.999-4.22 4.22-9.222 6.337-15 6.337H128.001c-5.776 0-10.775-2.116-14.999-6.337-4.222-4.215-6.333-9.222-6.333-14.999v-42.67c0-5.777 2.112-10.777 6.333-15 4.223-4.223 9.221-6.335 14.999-6.335h256.004c5.777 0 10.779 2.112 15 6.335 4.223 4.221 6.337 9.221 6.337 15v42.67z"/><path d="M405.342 277.334c0 5.776-2.114 10.783-6.337 14.999-4.22 4.22-9.222 6.337-15 6.337H128.001c-5.776 0-10.775-2.116-14.999-6.337-4.222-4.215-6.333-9.222-6.333-14.999v-42.67c0-5.777 2.112-10.777 6.333-15 4.223-4.223 9.221-6.335 14.999-6.335h256.004c5.777 0 10.779 2.112 15 6.335 4.223 4.221 6.337 9.221 6.337 15v42.67z"/></symbol><symbol viewBox="277.64 400.945 40 40" id="next" xmlns="http://www.w3.org/2000/svg"><path d="M308.985 419.848l-18.5-18.45a1.552 1.552 0 00-2.19 2.196l17.4 17.352-17.401 17.352a1.548 1.548 0 001.095 2.647c.396 0 .792-.15 1.095-.452l18.501-18.45a1.548 1.548 0 000-2.195z"/></symbol><symbol viewBox="0 0 397.92 423.32" id="order-cian" xmlns="http://www.w3.org/2000/svg"><defs><style>.nfil0{fill:#2075a1}</style></defs><g id="nСлой_x0020_1"><g id="n_1540714930000"><path class="nfil0" d="M235.95 256.37l.83 33.94c4.1-.34 8.74-1.77 13.04-2.69 12.52-2.67 19.47-2.64 24.11-9.01 2.47-3.39 4.56-5.96 7.21-9.35l28.75-37.47c2.7-3.3 4.74-6.18 7.19-9.38l50.51-65.39c-2.16-3.23-29.44-23.75-34.77-27.32-7.49 11.17-37.82 48.69-48.62 63.15l-42.44 55.25c-1.15 1.49-5.81 6.52-5.81 8.27zM130.81 16.27c0 15.93-21.06 12.42-35.6 12.42v28.15h106.8V28.69c-36.27 0-36.43 2.6-36.43-28.98h-34.77v16.56zm218.56 91.9c2.14 3.19 31.71 25.27 34.78 27.32 5.11-7.64 12.09-12.86 8.61-25.99-3.85-14.55-22.08-21.37-34.42-11.41l-8.97 10.08z"/><path class="nfil0" d="M32.72 29.53h35.37v40.83c0 7.69 6.28 13.97 13.97 13.97h132.32c7.69 0 13.97-6.28 13.97-13.97V29.53h35.37c20.32 0 36.96 16.63 36.96 36.95v61.09c-15.17 20.38-49.28 65.67-71.23 94.77a13.49 13.49 0 00-4.69-.83H71.68c-7.53 0-13.68 6.16-13.68 13.68s6.15 13.68 13.68 13.68h137.75c-.55.87-.74 1.48-.67 2.47l2.28 58.55c.99 7.41 7.89 10.67 15.42 9.8l52.87-11.16c4.81-1.33 6.32-2.79 9.7-6.4l11.65-14.37v98.89c0 20.32-16.64 36.96-36.96 36.96h-231c-20.32 0-36.96-16.64-36.96-36.96V66.48c0-20.32 16.64-36.95 36.96-36.95zm38.96 120.58h153.08c7.53 0 13.68 6.15 13.68 13.68 0 7.52-6.15 13.68-13.68 13.68H71.68c-7.53 0-13.68-6.16-13.68-13.68 0-7.53 6.15-13.68 13.68-13.68zm0 142.8h89.15c7.52 0 13.68 6.16 13.68 13.68s-6.16 13.68-13.68 13.68H71.68c-7.53 0-13.68-6.16-13.68-13.68s6.15-13.68 13.68-13.68z"/></g></g></symbol><symbol viewBox="0 0 338.66 338.66" id="phone" xmlns="http://www.w3.org/2000/svg"><path d="M311.49 222.29c-20.74 0-41.09-3.24-60.39-9.62-9.45-3.22-21.07-.26-26.84 5.66l-38.08 28.75c-44.16-23.57-71.37-50.77-94.62-94.6l27.9-37.09c7.25-7.24 9.85-17.81 6.74-27.73-6.41-19.4-9.66-39.74-9.66-60.49 0-14.98-12.19-27.18-27.17-27.18h-62.2C12.19-.01 0 12.19 0 27.17c0 171.76 139.73 311.5 311.49 311.5 14.98 0 27.17-12.2 27.17-27.18v-62.02c0-14.99-12.19-27.18-27.17-27.18z"/></symbol><symbol viewBox="0 0 338.66 338.66" id="phone-white" xmlns="http://www.w3.org/2000/svg"><path d="M311.49 222.29c-20.74 0-41.09-3.24-60.39-9.62-9.45-3.22-21.07-.26-26.84 5.66l-38.08 28.75c-44.16-23.57-71.37-50.77-94.62-94.6l27.9-37.09c7.25-7.24 9.85-17.81 6.74-27.73-6.41-19.4-9.66-39.74-9.66-60.49 0-14.98-12.19-27.18-27.17-27.18h-62.2C12.19-.01 0 12.19 0 27.17c0 171.76 139.73 311.5 311.49 311.5 14.98 0 27.17-12.2 27.17-27.18v-62.02c0-14.99-12.19-27.18-27.17-27.18z"/></symbol><symbol viewBox="0 0 512 512" id="plus" xmlns="http://www.w3.org/2000/svg"><path d="M477.675 127.498c-22.893-39.22-53.945-70.272-93.166-93.164C345.28 11.443 302.458 0 256.008 0c-46.445 0-89.281 11.443-128.502 34.333-39.223 22.889-70.276 53.941-93.169 93.165C11.443 166.723 0 209.559 0 256c0 46.445 11.446 89.273 34.334 128.5 22.892 39.22 53.944 70.272 93.167 93.167C166.727 500.556 209.559 512 256.003 512s89.281-11.444 128.504-34.333c39.222-22.887 70.273-53.947 93.164-93.167 22.887-39.225 34.328-82.059 34.328-128.5.001-46.446-11.442-89.283-34.324-128.502zm-72.333 149.836c0 5.776-2.114 10.783-6.337 14.999-4.227 4.22-9.226 6.337-15 6.337h-85.336v85.328c0 5.776-2.116 10.778-6.337 15.007-4.219 4.219-9.22 6.33-14.999 6.33h-42.665c-5.777 0-10.777-2.111-14.999-6.33-4.224-4.228-6.336-9.229-6.336-15.007V298.67H128c-5.777 0-10.775-2.116-14.999-6.337-4.222-4.215-6.333-9.222-6.333-14.999v-42.67c0-5.777 2.112-10.777 6.333-15 4.223-4.223 9.221-6.335 14.999-6.335h85.337v-85.333c0-5.778 2.112-10.775 6.335-14.999 4.222-4.222 9.222-6.333 14.999-6.333h42.67c5.777 0 10.78 2.112 14.999 6.333 4.22 4.223 6.338 9.221 6.338 14.999v85.333h85.327c5.777 0 10.779 2.112 15 6.335 4.223 4.221 6.337 9.221 6.337 15v42.67z"/><path d="M405.342 277.334c0 5.776-2.114 10.783-6.337 14.999-4.227 4.22-9.226 6.337-15 6.337h-85.336v85.328c0 5.776-2.116 10.778-6.337 15.007-4.219 4.219-9.22 6.33-14.999 6.33h-42.665c-5.777 0-10.777-2.111-14.999-6.33-4.224-4.228-6.336-9.229-6.336-15.007V298.67H128c-5.777 0-10.775-2.116-14.999-6.337-4.222-4.215-6.333-9.222-6.333-14.999v-42.67c0-5.777 2.112-10.777 6.333-15 4.223-4.223 9.221-6.335 14.999-6.335h85.337v-85.333c0-5.778 2.112-10.775 6.335-14.999 4.222-4.222 9.222-6.333 14.999-6.333h42.67c5.777 0 10.78 2.112 14.999 6.333 4.22 4.223 6.338 9.221 6.338 14.999v85.333h85.327c5.777 0 10.779 2.112 15 6.335 4.223 4.221 6.337 9.221 6.337 15v42.67z"/></symbol><symbol viewBox="0 0 135.46 135.46" id="search" xmlns="http://www.w3.org/2000/svg"><path d="M59.65-.01C26.76-.01-.01 26.76-.01 59.65c0 32.9 26.77 59.66 59.66 59.66 14.47 0 27.75-5.18 38.09-13.78l28.32 28.32a5.498 5.498 0 003.9 1.62c1.41 0 2.82-.54 3.89-1.62a5.51 5.51 0 000-7.79l-28.32-28.32c8.6-10.34 13.78-23.62 13.78-38.09 0-32.89-26.76-59.66-59.66-59.66zm0 108.31c-26.82 0-48.64-21.82-48.64-48.65 0-26.82 21.82-48.64 48.64-48.64 26.83 0 48.65 21.82 48.65 48.64 0 26.83-21.82 48.65-48.65 48.65z"/></symbol><symbol viewBox="0 0 152.38 145.62" id="star-grey" xmlns="http://www.w3.org/2000/svg"><path d="M55.53 54.8c-11.63 0-24.45.75-36.78.75-2.87-.01-4.81.31-7.12.38-5.56.17-11.64-1.54-11.64 4.49 0 1.47.72 2.18 1.6 2.91 6.74 5.58 21.86 16.58 29.92 22.61l10.88 8.26c-.14 1.75-6.9 23.55-7.45 25.19-1.43 4.2-2.43 8.46-3.85 12.66l-3.71 12.81c0 1.93 2.96 5.89 7.62 2.36l10.84-7.55c1.01-.68 1.67-1.1 2.66-1.84 1.83-1.37 3.72-2.57 5.53-3.85l16.44-11.33c7.11-4.83 3.74-5.25 13.88 1.64l27.24 18.91c3.94 2.73 8.87 7.57 11.97 4.4 2.65-2.71.78-5-.33-8.91-1.61-5.67-13.1-42.19-13.29-44.49l40.59-30.71c3.3-2.59 1.94-7.1-1.97-7.54-2.29-.26-5.09.18-7.42-.08L96.8 54.8l-9.14-26.51c-.79-2.37-1.47-4.1-2.26-6.37-.84-2.4-1.36-4.41-2.26-6.74-2.68-6.91-2.47-11.42-7.35-11.42-3.88 0-4.53 6.21-6.49 11.15-.92 2.32-1.46 4.32-2.28 6.73l-6.95 19.69c-.76 2.3-1.43 4.56-2.29 6.71-.74 1.86-1.78 4.74-2.25 6.76z"/></symbol><symbol viewBox="0 0 152.38 145.62" id="star-red" xmlns="http://www.w3.org/2000/svg"><path d="M55.53 54.8c-11.63 0-24.45.75-36.78.75-2.87-.01-4.81.31-7.12.38-5.56.17-11.64-1.54-11.64 4.49 0 1.47.72 2.18 1.6 2.91 6.74 5.58 21.86 16.58 29.92 22.61l10.88 8.26c-.14 1.75-6.9 23.55-7.45 25.19-1.43 4.2-2.43 8.46-3.85 12.66l-3.71 12.81c0 1.93 2.96 5.89 7.62 2.36l10.84-7.55c1.01-.68 1.67-1.1 2.66-1.84 1.83-1.37 3.72-2.57 5.53-3.85l16.44-11.33c7.11-4.83 3.74-5.25 13.88 1.64l27.24 18.91c3.94 2.73 8.87 7.57 11.97 4.4 2.65-2.71.78-5-.33-8.91-1.61-5.67-13.1-42.19-13.29-44.49l40.59-30.71c3.3-2.59 1.94-7.1-1.97-7.54-2.29-.26-5.09.18-7.42-.08L96.8 54.8l-9.14-26.51c-.79-2.37-1.47-4.1-2.26-6.37-.84-2.4-1.36-4.41-2.26-6.74-2.68-6.91-2.47-11.42-7.35-11.42-3.88 0-4.53 6.21-6.49 11.15-.92 2.32-1.46 4.32-2.28 6.73l-6.95 19.69c-.76 2.3-1.43 4.56-2.29 6.71-.74 1.86-1.78 4.74-2.25 6.76z"/></symbol><symbol viewBox="0 0 512 512" id="x-button" xmlns="http://www.w3.org/2000/svg"><circle cx="256" cy="256" r="256"/><path d="M510.28 285.304L367.912 142.936 150.248 368.608l140.928 140.928c115.176-15.84 205.88-108.248 219.104-224.232z"/><path d="M354.376 371.536a19.954 19.954 0 01-14.144-5.856L146.408 171.848c-7.816-7.816-7.816-20.472 0-28.28s20.472-7.816 28.28 0L368.52 337.4c7.816 7.816 7.816 20.472 0 28.28a19.954 19.954 0 01-14.144 5.856z"/><path d="M160.544 371.536a19.954 19.954 0 01-14.144-5.856c-7.816-7.816-7.816-20.472 0-28.28l193.832-193.832c7.816-7.816 20.472-7.816 28.28 0s7.816 20.472 0 28.28L174.688 365.68a19.94 19.94 0 01-14.144 5.856z"/></symbol><symbol viewBox="0 0 397.92 423.32" id="zayavka" xmlns="http://www.w3.org/2000/svg"><defs><style>.vfil0{fill:red}</style></defs><path class="vfil0" d="M235.95 256.37l.83 33.94c4.1-.34 8.74-1.77 13.04-2.69 12.52-2.67 19.47-2.64 24.11-9.01 2.47-3.39 4.56-5.96 7.21-9.35l28.75-37.47c2.7-3.3 4.74-6.18 7.19-9.38l50.51-65.39c-2.16-3.23-29.44-23.75-34.77-27.32-7.49 11.17-37.82 48.69-48.62 63.15l-42.44 55.25c-1.15 1.49-5.81 6.52-5.81 8.27zM130.81 16.27c0 15.93-21.06 12.42-35.6 12.42v28.15h106.8V28.69c-36.27 0-36.43 2.6-36.43-28.98h-34.77v16.56zm218.56 91.9c2.14 3.19 31.71 25.27 34.78 27.32 5.11-7.64 12.09-12.86 8.61-25.99-3.85-14.55-22.08-21.37-34.42-11.41l-8.97 10.08z"/><path class="vfil0" d="M32.72 29.53h35.37v40.83c0 7.69 6.28 13.97 13.97 13.97h132.32c7.69 0 13.97-6.28 13.97-13.97V29.53h35.37c20.32 0 36.96 16.63 36.96 36.95v61.09c-15.17 20.38-49.28 65.67-71.23 94.77a13.49 13.49 0 00-4.69-.83H71.68c-7.53 0-13.68 6.16-13.68 13.68s6.15 13.68 13.68 13.68h137.75c-.55.87-.74 1.48-.67 2.47l2.28 58.55c.99 7.41 7.89 10.67 15.42 9.8l52.87-11.16c4.81-1.33 6.32-2.79 9.7-6.4l11.65-14.37v98.89c0 20.32-16.64 36.96-36.96 36.96h-231c-20.32 0-36.96-16.64-36.96-36.96V66.48c0-20.32 16.64-36.95 36.96-36.95zm38.96 120.58h153.08c7.53 0 13.68 6.15 13.68 13.68 0 7.52-6.15 13.68-13.68 13.68H71.68c-7.53 0-13.68-6.16-13.68-13.68 0-7.53 6.15-13.68 13.68-13.68zm0 142.8h89.15c7.52 0 13.68 6.16 13.68 13.68s-6.16 13.68-13.68 13.68H71.68c-7.53 0-13.68-6.16-13.68-13.68s6.15-13.68 13.68-13.68z"/></symbol></svg>